<svg width="24" height="24" viewBox="0 0 24 24" fill="none" xmlns="http://www.w3.org/2000/svg">
  <path d="M12 2C8.5 2 5.5 4.5 5.5 8C5.5 10.5 6.5 12.5 8 13.5V16C8 18 9 20 11 20.5V22H13V20.5C15 20 16 18 16 16V13.5C17.5 12.5 18.5 10.5 18.5 8C18.5 4.5 15.5 2 12 2Z" stroke="currentColor" stroke-width="1.5" stroke-linecap="round" stroke-linejoin="round"/>
  <path d="M9 8.5C9 7.5 9.5 7 10.5 7C11.5 7 12 7.5 12 8.5C12 7.5 12.5 7 13.5 7C14.5 7 15 7.5 15 8.5C15 9.5 14.5 10 14 10.5C13.5 11 13 11.5 12 12C11 11.5 10.5 11 10 10.5C9.5 10 9 9.5 9 8.5Z" stroke="currentColor" stroke-width="1.5" stroke-linecap="round" stroke-linejoin="round"/>
  <circle cx="12" cy="15" r="2" stroke="currentColor" stroke-width="1.5"/>
  <path d="M12 14V16M11 15H13" stroke="currentColor" stroke-width="1.5" stroke-linecap="round"/>
</svg>